<svg width="36" height="42" viewBox="0 0 36 42" fill="none" xmlns="http://www.w3.org/2000/svg">
<g filter="url(#filter0_dd_1_455)">
<path d="M15.1429 14.3333V15.6429C15.1429 17.2208 16.422 18.5 18 18.5V18.5C19.578 18.5 20.8571 17.2208 20.8571 15.6429V14.3333M15.1429 14.3333V13.9627C15.1429 13.321 14.8152 12.7353 14.3809 12.2629C13.5253 11.3324 13 10.0724 13 8.68519C13 5.82149 15.2386 3.5 18 3.5C20.7614 3.5 23 5.82149 23 8.68519C23 10.0724 22.4747 11.3324 21.6191 12.2629C21.1848 12.7353 20.8571 13.321 20.8571 13.9627V14.3333M15.1429 14.3333H20.8571" stroke="#82DBF7" stroke-width="1.5" stroke-linecap="round" stroke-linejoin="round"/>
</g>
<defs>
<filter id="filter0_dd_1_455" x="-4" y="-1" width="44" height="44" filterUnits="userSpaceOnUse" color-interpolation-filters="sRGB">
<feFlood flood-opacity="0" result="BackgroundImageFix"/>
<feColorMatrix in="SourceAlpha" type="matrix" values="0 0 0 0 0 0 0 0 0 0 0 0 0 0 0 0 0 0 127 0" result="hardAlpha"/>
<feMorphology radius="4" operator="erode" in="SourceAlpha" result="effect1_dropShadow_1_455"/>
<feOffset dy="4"/>
<feGaussianBlur stdDeviation="3"/>
<feColorMatrix type="matrix" values="0 0 0 0 0.713726 0 0 0 0 0.941176 0 0 0 0 0.611765 0 0 0 0.16 0"/>
<feBlend mode="normal" in2="BackgroundImageFix" result="effect1_dropShadow_1_455"/>
<feColorMatrix in="SourceAlpha" type="matrix" values="0 0 0 0 0 0 0 0 0 0 0 0 0 0 0 0 0 0 127 0" result="hardAlpha"/>
<feMorphology radius="3" operator="erode" in="SourceAlpha" result="effect2_dropShadow_1_455"/>
<feOffset dy="10"/>
<feGaussianBlur stdDeviation="7.5"/>
<feColorMatrix type="matrix" values="0 0 0 0 0.713726 0 0 0 0 0.941176 0 0 0 0 0.611765 0 0 0 0.16 0"/>
<feBlend mode="normal" in2="effect1_dropShadow_1_455" result="effect2_dropShadow_1_455"/>
<feBlend mode="normal" in="SourceGraphic" in2="effect2_dropShadow_1_455" result="shape"/>
</filter>
</defs>
</svg>
