<svg width="20" height="20" viewBox="0 0 20 20" fill="none" xmlns="http://www.w3.org/2000/svg">
<path d="M12.0226 13.7136C11.7966 14.0894 11.6666 14.5295 11.6666 15C11.6666 16.3807 12.7859 17.5 14.1666 17.5C15.5474 17.5 16.6666 16.3807 16.6666 15C16.6666 13.6193 15.5474 12.5 14.1666 12.5C13.2564 12.5 12.4598 12.9865 12.0226 13.7136ZM12.0226 13.7136L7.97737 11.2864M7.97737 11.2864C8.20335 10.9106 8.33331 10.4705 8.33331 10C8.33331 9.52952 8.20335 9.0894 7.97737 8.71357M7.97737 11.2864C7.54016 12.0135 6.74355 12.5 5.83331 12.5C4.4526 12.5 3.33331 11.3807 3.33331 10C3.33331 8.61929 4.4526 7.5 5.83331 7.5C6.74355 7.5 7.54016 7.98645 7.97737 8.71357M7.97737 8.71357L12.0226 6.28643M12.0226 6.28643C12.4598 7.01355 13.2564 7.5 14.1666 7.5C15.5474 7.5 16.6666 6.38071 16.6666 5C16.6666 3.61929 15.5474 2.5 14.1666 2.5C12.7859 2.5 11.6666 3.61929 11.6666 5C11.6666 5.47048 11.7966 5.9106 12.0226 6.28643Z" stroke="#686B6E" stroke-width="1.5" stroke-linecap="round" stroke-linejoin="round"/>
</svg>
